<svg xmlns="http://www.w3.org/2000/svg" viewBox="0 0 178 22">
  <defs>
    <style>
      .a {
        fill: #231f20;
      }
    </style>
  </defs>
  <title>harman_kardon</title>
  <g>
    <path class="a" d="M0,.053H3.389V6.231h.045A3.853,3.853,0,0,1,6.654,4.3c3,0,5.028,1.24,5.028,4.483v8.666H8.3V9.762c0-1.149-.149-2.508-2.445-2.508-2.057,0-2.464,1.124-2.464,2.172v8.021H0Z"/>
    <path class="a" d="M22,17.446a2.1,2.1,0,0,1-.363-1.289A5.546,5.546,0,0,1,17.434,18c-2.659,0-3.968-1.48-3.873-3.989.079-1.813.8-3.577,3.8-4.078a13.777,13.777,0,0,0,3.412-.6,1.388,1.388,0,0,0,.846-1.458c0-.811-.68-1.171-2.225-1.171-1.937,0-2.178,1.171-2.227,2.1H13.973C14.025,4.677,17.6,4.3,19.394,4.3a9.008,9.008,0,0,1,3.094.474A3.56,3.56,0,0,1,24.833,8.4v7.066a2.043,2.043,0,0,0,.749,1.527v.455Zm-.384-6.086a9.34,9.34,0,0,1-3.146.7A1.678,1.678,0,0,0,17,14.149c.19.766.8,1.315,2.246,1.078,2.011-.312,2.374-1.7,2.374-3.126Z"/>
    <path class="a" d="M27.906,4.511h3.388V7.016h.048A3.032,3.032,0,0,1,32.91,4.989a3.11,3.11,0,0,1,2.419-.69V7.707c-1.45-.167-3.627-.357-4.035,2.458v7.282H27.906Z"/>
    <path class="a" d="M37.681,17.446V4.511h3.386V6.445h.044C42.177,4.914,43.146,4.034,45.13,4.3c1.665.212,2.13.786,3.093,1.881.822-1.142,1.84-2.192,4.593-1.881,2.618.378,3.338,2.1,3.338,4.172v8.975H52.77v-8.9c-.05-.956-.89-1.313-1.692-1.359a2.293,2.293,0,0,0-2.465,2.337v7.924H45.224v-8.9a1.668,1.668,0,0,0-1.859-1.359,2.171,2.171,0,0,0-2.3,2.337v7.924Z"/>
    <path class="a" d="M66.631,17.446a2.117,2.117,0,0,1-.364-1.289A5.556,5.556,0,0,1,62.06,18c-2.657,0-3.963-1.48-3.869-3.989.075-1.813.8-3.577,3.8-4.078a13.777,13.777,0,0,0,3.413-.6,1.378,1.378,0,0,0,.846-1.458c0-.811-.68-1.171-2.224-1.171-1.938,0-2.178,1.171-2.228,2.1H58.6C58.65,4.677,62.233,4.3,64.022,4.3a8.993,8.993,0,0,1,3.093.474A3.559,3.559,0,0,1,69.461,8.4v7.066a2.034,2.034,0,0,0,.747,1.527v.455Zm-.385-6.086a9.34,9.34,0,0,1-3.143.7,1.677,1.677,0,0,0-1.477,2.094c.194.766.8,1.315,2.25,1.078,2.007-.312,2.37-1.7,2.37-3.126Z"/>
    <path class="a" d="M72.558,4.511h3.39V6.467h.043A3.644,3.644,0,0,1,79.212,4.3c3,0,5.029,1.239,5.029,4.483v8.665H80.857V9.762c0-1.148-.151-2.507-2.446-2.507-2.057,0-2.463,1.123-2.463,2.172v8.02h-3.39Z"/>
    <polygon class="a" points="104.092 0.053 104.092 9.544 104.143 9.544 108.37 4.513 112.245 4.513 107.819 9.452 112.53 17.447 108.568 17.447 105.497 11.91 104.092 13.41 104.092 17.447 100.709 17.447 100.709 0.053 104.092 0.053"/>
    <polygon class="a" points="86.935 17.469 97.32 0 97.967 0 87.551 17.469 86.935 17.469"/>
    <polygon class="a" points="104.092 0.053 104.092 9.544 104.143 9.544 108.37 4.513 112.245 4.513 107.819 9.452 112.53 17.447 108.568 17.447 105.497 11.91 104.092 13.41 104.092 17.447 100.709 17.447 100.709 0.053 104.092 0.053"/>
    <g>
      <path class="a" d="M121.945,17.446a2.075,2.075,0,0,1-.36-1.289A5.566,5.566,0,0,1,117.376,18c-2.665,0-3.97-1.48-3.869-3.989.072-1.813.8-3.577,3.8-4.078a13.864,13.864,0,0,0,3.413-.6,1.391,1.391,0,0,0,.845-1.458c0-.811-.678-1.171-2.225-1.171-1.94,0-2.177,1.171-2.229,2.1h-3.192c.047-4.13,3.629-4.507,5.421-4.507a9.026,9.026,0,0,1,3.092.474A3.559,3.559,0,0,1,124.773,8.4v7.066a2.031,2.031,0,0,0,.751,1.527v.455Zm-.384-6.086a9.341,9.341,0,0,1-3.149.7,1.677,1.677,0,0,0-1.471,2.094c.19.766.8,1.315,2.247,1.078,2.01-.312,2.373-1.7,2.373-3.126Z"/>
      <path class="a" d="M127.848,4.511h3.383V7.016h.055a3.027,3.027,0,0,1,1.57-2.027,3.1,3.1,0,0,1,2.415-.69V7.707c-1.451-.167-3.629-.357-4.04,2.458v7.282h-3.383Z"/>
      <path class="a" d="M148.933,17.517h-3.381V16.155H145.5a4.176,4.176,0,0,1-3.316,1.839c-2.364.091-3.719-.839-4.738-2.988a10,10,0,0,1-.99-3.6,9.014,9.014,0,0,1,.846-4.177A4.846,4.846,0,0,1,141.8,4.3c2.2-.1,3.221.88,3.7,1.976h.049V.054h3.381Zm-8.485-8.876a6.153,6.153,0,0,0-.581,2.53,6.159,6.159,0,0,0,.581,2.528,2.487,2.487,0,0,0,4.524,0,6.177,6.177,0,0,0,.58-2.528,6.171,6.171,0,0,0-.58-2.53,2.484,2.484,0,0,0-4.524,0"/>
      <path class="a" d="M153.093,16.418a7.089,7.089,0,0,1-1.928-5.277,7.09,7.09,0,0,1,1.928-5.27,7.3,7.3,0,0,1,9.051,0,7.093,7.093,0,0,1,1.932,5.27,7.091,7.091,0,0,1-1.932,5.277,7.286,7.286,0,0,1-9.051,0m2.108-7.8a5.616,5.616,0,0,0-.633,2.527,5.6,5.6,0,0,0,.633,2.531,2.732,2.732,0,0,0,4.832,0,5.6,5.6,0,0,0,.633-2.531,5.616,5.616,0,0,0-.633-2.527,2.735,2.735,0,0,0-4.832,0"/>
      <path class="a" d="M166.318,4.511h3.388V6.467h.048A3.626,3.626,0,0,1,172.972,4.3c3,0,5.028,1.239,5.028,4.483v8.665h-3.382V9.762c0-1.148-.151-2.507-2.447-2.507-2.057,0-2.465,1.123-2.465,2.172v8.02h-3.388Z"/>
    </g>
    <polygon class="a" points="86.935 17.469 97.32 0 97.967 0 87.551 17.469 86.935 17.469"/>
  </g>
</svg>
