<svg xmlns="http://www.w3.org/2000/svg" width="106" height="22" viewBox="0 0 106 22">
  <title>asus</title>
  <g>
    <path d="M51.728,0H33.0455c-4.346,0-6.254,2.71671-6.7045,5.32688V0H15.9795A2.9408,2.9408,0,0,0,13.144,1.46489l-2.862,4.155H51.728Z"/>
    <polygon points="0 22 7.447 22 16.774 6.872 10.123 6.206 0 22"/>
    <rect x="52.841" width="6.1215" height="5.61985"/>
    <path d="M97.8645,8.78935,78.705,7.64407c0,2.95641,1.9345,4.92736,5.2205,5.1937L97.573,13.90315c1.06.0799,1.696.34624,1.696,1.22518,0,.82566-.742,1.14528-2.279,1.14528H78.387V22H97.3875C103.3765,22,106,19.89588,106,15.10169,106,10.78692,103.6415,9.16223,97.8645,8.78935Z"/>
    <path d="M78.44,7.64407l-6.042-.34625V13.77c0,2.02421-1.007,2.6368-4.505,2.6368H63.07c-2.8885,0-4.1075-.82567-4.1075-2.6368V6.68523L52.841,6.23244V14.276h-.1325c-.3445-2.34383-1.219-5.06053-7.049-5.46005L26.5,7.53753c0,2.95642,2.0935,4.71429,5.3795,5.06053l13.356,1.35836c1.06.0799,1.82849.39951,1.82849,1.27845,0,.95883-.795,1.06537-2.014,1.06537H26.2615V7.53753L20.14,7.138V22H45.0765c5.565,0,7.3405-2.90315,7.6055-5.32688h.1325C53.5035,20.50848,56.8425,22,62.487,22h6.2275c6.5985,0,9.7255-2.02421,9.7255-6.76513Z"/>
    <path d="M105.576,5.61985V0H85.012c-4.293,0-6.2275,2.66344-6.54551,5.247V0h-6.042V5.61985H105.576Z"/>
  </g>
</svg>
