<svg xmlns="http://www.w3.org/2000/svg" viewBox="0 0 78 22">
  <title>belkin</title>
  <g>
    <path d="M71.059,6.006c-4.7,0-7.084,2.677-7.084,7.31v8.321h3.976V13.316c0-2.244.867-3.618,3.035-3.618s3.039,1.374,3.039,3.618v8.321H78V13.316C78,8.612,75.686,6.006,71.059,6.006Z"/>
    <path d="M8.747,6.078A6.271,6.271,0,0,0,3.977,8.1V.8H0V13.965A7.71,7.71,0,0,0,8.024,22a7.593,7.593,0,0,0,7.951-7.96C15.975,9.263,13.084,6.006,8.747,6.078Zm-.8,12.229a4.038,4.038,0,0,1-3.975-4.268,4.083,4.083,0,0,1,3.975-4.27,4.039,4.039,0,0,1,3.976,4.27A4.037,4.037,0,0,1,7.951,18.307Z"/>
    <path d="M25.373,6.006a7.819,7.819,0,0,0-7.879,8.105c0,4.7,3.252,7.889,8.1,7.889a9.461,9.461,0,0,0,6-2.027l-2.024-2.75A5.5,5.5,0,0,1,25.59,18.67c-2.1,0-3.831-1.229-4.048-3.111H32.891a6.986,6.986,0,0,0,.073-1.231C32.964,9.118,30.144,6.006,25.373,6.006Zm-3.832,6.657a3.593,3.593,0,0,1,3.687-3.327,3.545,3.545,0,0,1,3.687,3.327Z"/>
    <rect x="35.059" y="0.796" width="3.976" height="20.767"/>
    <polygon points="55.807 6.512 51.179 6.512 45.832 13.169 45.832 0.796 41.856 0.796 41.856 21.637 45.832 21.637 45.832 14.401 51.179 21.638 56.024 21.638 49.879 13.461 55.807 6.512"/>
    <rect x="57.541" y="6.512" width="3.976" height="15.052"/>
    <path d="M59.566,0a2.284,2.284,0,0,0-2.313,2.315,2.313,2.313,0,1,0,4.625,0A2.328,2.328,0,0,0,59.566,0Z"/>
  </g>
</svg>
