<svg xmlns="http://www.w3.org/2000/svg" viewBox="0 0 125 22">
  <title>sony</title>
  <path d="M44.532,22C40,22,35.8,20.642,32.995,18.125a9.459,9.459,0,0,1-3.138-7.145,9.6,9.6,0,0,1,3.138-7.119C35.6,1.487,40.2,0,44.532,0c4.793,0,8.63,1.207,11.562,3.867a9.5,9.5,0,0,1,3.1,7.114,9.906,9.906,0,0,1-3.1,7.144C53.363,20.659,49.072,22,44.532,22V19.1a8.7,8.7,0,0,0,6.19-2.378,7.693,7.693,0,0,0,2.266-5.74,7.988,7.988,0,0,0-2.266-5.751,9.3,9.3,0,0,0-12.39,0,8.025,8.025,0,0,0-2.26,5.751,8.04,8.04,0,0,0,2.26,5.74,8.808,8.808,0,0,0,6.2,2.378V22ZM11.436.011a18.991,18.991,0,0,0-7.512,1.5C1.766,2.47,0,4.026,0,6.607a5.3,5.3,0,0,0,1.436,3.648A8.019,8.019,0,0,0,5.722,12.4c1.182.258,3.71.655,6.227.918,2.5.263,4.957.514,5.959.767.8.2,2.132.479,2.132,1.978a2.24,2.24,0,0,1-1.653,2.047,12.415,12.415,0,0,1-4.97.871A21.105,21.105,0,0,1,7.5,17.953a7.143,7.143,0,0,1-3.428-2.289,3.931,3.931,0,0,1-.711-2.172H.61v7.7H3.665V20.15a.436.436,0,0,1,.661-.373A24.193,24.193,0,0,0,8.8,21.221a19.139,19.139,0,0,0,4.637.576,19.878,19.878,0,0,0,6.217-.876A10.889,10.889,0,0,0,23.34,19.1a5.054,5.054,0,0,0,1.978-4.051,5.667,5.667,0,0,0-1.6-3.985,6.969,6.969,0,0,0-1.98-1.344,14.464,14.464,0,0,0-2.431-.849c-1.574-.387-5.135-.863-6.837-1.042A47.193,47.193,0,0,1,6.352,7,1.473,1.473,0,0,1,5.213,5.634a1.882,1.882,0,0,1,1.041-1.6,11.981,11.981,0,0,1,5.622-1.114,16.3,16.3,0,0,1,6.513,1.271,7.176,7.176,0,0,1,1.551.924,4.659,4.659,0,0,1,1.527,2.555h2.467V.971H21.179V1.75c0,.251-.26.578-.751.308A20.917,20.917,0,0,0,11.436.011M71.811,1.228l13.44,12.125-.139-8.164c-.013-1.07-.21-1.517-1.369-1.517H81.217V1.23H92.708V3.672H90.243c-1.182,0-1.256.378-1.27,1.517l.208,15.6H85.246L69.766,6.977l0,9.8c.013,1.066.063,1.567,1.161,1.567h2.76v2.441H62.406v-2.44h2.638c.985,0,.946-.94.946-1.623V5.282c0-.738-.1-1.608-1.651-1.608H62.2V1.228Zm34.027,17.113a5.379,5.379,0,0,0,.681-.042.841.841,0,0,0,.528-.47,2.725,2.725,0,0,0,.053-.528l0-3.859c0-.093-.007-.133-.165-.34-.173-.226-7.039-8-7.353-8.347a2.882,2.882,0,0,0-2.117-1.083H95.079V1.229h13.476v2.44H106.93c-.375,0-.625.357-.3.753,0,0,4.534,5.421,4.577,5.478s.078.071.136.019,4.647-5.448,4.684-5.49a.471.471,0,0,0-.4-.757h-1.666V1.229H125V3.672h-2.467A2.1,2.1,0,0,0,120.6,4.6c-.308.348-7.248,8.266-7.436,8.481a.519.519,0,0,0-.091.361V17.3a2.723,2.723,0,0,0,.053.527.84.84,0,0,0,.53.469,5.064,5.064,0,0,0,.673.043h2.524v2.443H103.447V18.339l2.392,0Z"/>
</svg>
