<svg xmlns="http://www.w3.org/2000/svg" viewBox="0 0 54 22">
  <title>b&amp;amp;w</title>
  <g>
    <path d="M5.2,9.242H7.947a2.411,2.411,0,0,0,1.747-.709A3.049,3.049,0,0,0,10.38,6.3a2.579,2.579,0,0,0-.587-1.934A2.612,2.612,0,0,0,7.914,3.63H4.889V9.242Zm.036,8.766H7.812a2.38,2.38,0,0,0,1.729-.7,3.051,3.051,0,0,0,.754-2.212,2.592,2.592,0,0,0-.655-1.913,2.59,2.59,0,0,0-1.861-.729H4.929v5.556Zm6.4-6.877s3.536.73,3.536,5.057c0,3.472-2.21,5.546-5.911,5.546H0V.055H9.186a6.331,6.331,0,0,1,4.651,1.518,5.926,5.926,0,0,1,1.585,4.292c0,5.2-3.79,5.193-3.79,5.193v.073"/>
    <path d="M25.239,17.627A4.673,4.673,0,0,1,22.512,19.1a2.351,2.351,0,0,1-2.458-2.368A3.372,3.372,0,0,1,22.2,14.015Zm2.9,4.03h4.951l-3.588-4.2a7.3,7.3,0,0,0,1.891-4.2H27.9a3.907,3.907,0,0,1-.623,1.686L25.505,12.8a4.709,4.709,0,0,0,2.919-4.233,4.536,4.536,0,0,0-4.834-4.44c-2.465,0-4.88,1.682-4.88,4.344a4.927,4.927,0,0,0,1.507,3.276c-2.056.958-3.634,2.545-3.634,5A5.154,5.154,0,0,0,22.036,22a7.242,7.242,0,0,0,4.9-1.806ZM23.489,10.715c-.6-.777-1.375-1.413-1.375-2.492a1.6,1.6,0,0,1,3.192.055c0,1.191-.853,1.854-1.817,2.437"/>
    <path d="M47.529,15.942a.046.046,0,1,1-.091,0L45.082,0H40.157L37.826,15.942a.055.055,0,0,1-.056.047.045.045,0,0,1-.044-.047L36.5,0H31.309l3.308,21.683h6.106c.024-.239,1.865-15,1.865-15a.047.047,0,0,1,.046-.047.044.044,0,0,1,.045.047l2.294,15H51.2L54,0H48.622L47.529,15.942"/>
  </g>
</svg>
