<svg xmlns="http://www.w3.org/2000/svg" width="113" height="24" viewBox="0 0 113 24">
  <defs>
    <style>
      .a {
        fill: #737373;
      }

      .b {
        fill: #f25022;
      }

      .c {
        fill: #7fba00;
      }

      .d {
        fill: #00a4ef;
      }

      .e {
        fill: #ffb900;
      }
    </style>
  </defs>
  <title>microsoft</title>
  <path class="a" d="M46.99408,4.8V19.2H44.48371V7.9h-.03347L39.96505,19.2H38.29147L33.70586,7.9h-.03347V19.2H31.36285V4.8h3.61493l4.15048,10.66667h.06694L43.58,4.8Zm2.07524,1.1a1.2652,1.2652,0,0,1,.43513-1,1.5001,1.5001,0,0,1,1.03762-.4,1.46862,1.46862,0,0,1,1.07109.4,1.383,1.383,0,0,1,.43513,1,1.2652,1.2652,0,0,1-.43513,1,1.52386,1.52386,0,0,1-1.07109.4,1.38988,1.38988,0,0,1-1.03762-.4A1.50649,1.50649,0,0,1,49.06932,5.9Zm2.71119,2.96667V19.2H49.33709V8.86667Zm7.39722,8.56666a2.82983,2.82983,0,0,0,1.205-.26666,5.29426,5.29426,0,0,0,1.205-.66667v2.26667a4.28181,4.28181,0,0,1-1.33887.5,8.26945,8.26945,0,0,1-1.6401.16666,4.91971,4.91971,0,0,1-5.15462-5.1,5.86754,5.86754,0,0,1,1.47274-4.1,5.31042,5.31042,0,0,1,4.15047-1.6A6.185,6.185,0,0,1,60.44965,8.8a4.573,4.573,0,0,1,1.10456.4v2.33333a4.86825,4.86825,0,0,0-1.138-.63333,3.85968,3.85968,0,0,0-1.205-.23333,3.05918,3.05918,0,0,0-2.343.93333,3.48791,3.48791,0,0,0-.87026,2.53333,3.32726,3.32726,0,0,0,.87026,2.43334A3.13785,3.13785,0,0,0,59.17773,17.43333ZM68.5163,8.7a2.71674,2.71674,0,0,1,.53554.03333,3.48768,3.48768,0,0,1,.40166.1V11.3a1.50511,1.50511,0,0,0-.569-.26667A3.44769,3.44769,0,0,0,67.98075,10.9a1.874,1.874,0,0,0-1.50622.76667A3.67012,3.67012,0,0,0,65.83858,14v5.2H63.39515V8.86667h2.44343V10.5h.03347A3.14116,3.14116,0,0,1,66.8762,9.16667,2.9582,2.9582,0,0,1,68.5163,8.7Zm1.07108,5.5a5.74382,5.74382,0,0,1,1.43928-4.06667,5.33755,5.33755,0,0,1,4.01659-1.5,4.93113,4.93113,0,0,1,3.78229,1.43334,5.49009,5.49009,0,0,1,1.37234,3.9,5.63144,5.63144,0,0,1-1.43928,4,5.23239,5.23239,0,0,1-3.94965,1.5,5.16814,5.16814,0,0,1-3.81576-1.4A5.33644,5.33644,0,0,1,69.58738,14.2Zm2.54385-.1a3.62463,3.62463,0,0,0,.73637,2.46667,2.68073,2.68073,0,0,0,2.10871.86666,2.441,2.441,0,0,0,2.04177-.86666,3.88177,3.88177,0,0,0,.7029-2.53334A4.00811,4.00811,0,0,0,77.01808,11.5a2.80154,2.80154,0,0,0-4.08353.03333A3.64159,3.64159,0,0,0,72.13123,14.1Zm11.715-2.5a1.05566,1.05566,0,0,0,.33472.83333,5.7337,5.7337,0,0,0,1.47275.73334,5.10586,5.10586,0,0,1,2.04176,1.3,2.69339,2.69339,0,0,1,.60249,1.76666,2.79458,2.79458,0,0,1-1.138,2.33334,4.72509,4.72509,0,0,1-3.04592.86666,7.96147,7.96147,0,0,1-1.43928-.16666,5.81052,5.81052,0,0,1-1.33886-.4v-2.4A5.858,5.858,0,0,0,82.77518,17.2a4.52831,4.52831,0,0,0,1.4058.26667,2.25754,2.25754,0,0,0,1.205-.23334.81716.81716,0,0,0,.40166-.76666A1.17146,1.17146,0,0,0,85.386,15.6a6.18955,6.18955,0,0,0-1.53969-.8,4.60412,4.60412,0,0,1-1.90788-1.26667,2.82589,2.82589,0,0,1-.569-1.8,2.83678,2.83678,0,0,1,1.10457-2.3,4.43368,4.43368,0,0,1,2.87855-.9,5.32851,5.32851,0,0,1,1.205.13334c.43514.1.83679.2,1.138.3v2.36666a7.22109,7.22109,0,0,0-1.138-.56666,3.55519,3.55519,0,0,0-1.27192-.23334A1.87222,1.87222,0,0,0,84.21446,10.8,1.06292,1.06292,0,0,0,83.84627,11.6Zm5.48934,2.6a5.74381,5.74381,0,0,1,1.43927-4.06667,5.33755,5.33755,0,0,1,4.01659-1.5,4.9311,4.9311,0,0,1,3.78228,1.43334,5.49009,5.49009,0,0,1,1.37234,3.9,5.63143,5.63143,0,0,1-1.43927,4,5.23238,5.23238,0,0,1-3.94964,1.5,5.16814,5.16814,0,0,1-3.81576-1.4A5.48083,5.48083,0,0,1,89.33561,14.2Zm2.54384-.1a3.62458,3.62458,0,0,0,.73638,2.46667,2.68072,2.68072,0,0,0,2.1087.86666,2.441,2.441,0,0,0,2.04177-.86666,3.88177,3.88177,0,0,0,.70291-2.53334A4.00811,4.00811,0,0,0,96.7663,11.5a2.80154,2.80154,0,0,0-4.08353.03333A3.80649,3.80649,0,0,0,91.87945,14.1Zm16.20024-3.23333h-3.6484V19.2h-2.4769V10.86667h-1.74052v-2h1.74052V7.43333a3.60255,3.60255,0,0,1,3.7823-3.7c.30124,0,.569.03334.80331.03334a1.60426,1.60426,0,0,1,.60249.13333V6a4.11424,4.11424,0,0,0-.43513-.16667,2.23393,2.23393,0,0,0-.70291-.1A1.51381,1.51381,0,0,0,104.833,6.2a2.11894,2.11894,0,0,0-.40166,1.4V8.83333h3.6484V6.5l2.44342-.73333V8.83333H113v2h-2.47689v4.83334A2.21176,2.21176,0,0,0,110.85782,17a1.39665,1.39665,0,0,0,1.10456.4,1.658,1.658,0,0,0,.50207-.1,1.75254,1.75254,0,0,0,.50208-.23333v2a2.34144,2.34144,0,0,1-.76985.23333,5.8233,5.8233,0,0,1-1.07109.1,3.03127,3.03127,0,0,1-2.30954-.8,3.5145,3.5145,0,0,1-.76984-2.46667l.03348-5.26666Z"/>
  <g>
    <rect class="b" width="11.44728" height="11.4"/>
    <rect class="c" x="12.65225" width="11.44728" height="11.4"/>
    <rect class="d" y="12.6" width="11.44728" height="11.4"/>
    <rect class="e" x="12.65225" y="12.6" width="11.44728" height="11.4"/>
  </g>
</svg>
