<svg xmlns="http://www.w3.org/2000/svg" viewBox="0 0 22 22">
  <title>b&amp;amp;o</title>
  <g>
    <path d="M6.984,12.8H6.557v3.628h.427a1.825,1.825,0,0,0,1.281-3.1A1.858,1.858,0,0,0,6.984,12.8"/>
    <path d="M14.337,8.75c.194-.2.388-.388.427-.447l-.97-.95-.427.426a.777.777,0,0,0-.194.505.63.63,0,0,0,.194.466.679.679,0,0,0,.97,0"/>
    <path d="M9.661,8.788a3.126,3.126,0,0,0-.912-2.211,3.079,3.079,0,0,0-2.191-.912v6.247a3.149,3.149,0,0,0,3.1-3.124"/>
    <path d="M14.046,11.233a2.6,2.6,0,0,0-1.843.756,2.623,2.623,0,0,0,0,3.687,2.593,2.593,0,0,0,4.423-1.843,2.629,2.629,0,0,0-.757-1.844,2.584,2.584,0,0,0-1.823-.756"/>
    <path d="M16.509,16.3a3.463,3.463,0,1,1,1.029-2.464A3.461,3.461,0,0,1,16.509,16.3m-7.6.233a2.686,2.686,0,0,1-1.921.8H5.665L5.646,4.772h.892a3.977,3.977,0,0,1,4.016,4.017,4.067,4.067,0,0,1-2.115,3.55,2.852,2.852,0,0,1,.912.95A2.652,2.652,0,0,1,9.7,14.628a2.687,2.687,0,0,1-.795,1.9M12.785,5.82a1.289,1.289,0,0,1,.349-.854,1.249,1.249,0,0,1,.893-.368,1.221,1.221,0,0,1,.872.349v.039l-.194.194-.291.291H14.4a.591.591,0,0,0-.368-.155.5.5,0,0,0-.5.5.467.467,0,0,0,.155.369L15.288,7.8l.484-.485.505.5-.485.505.7.679-.02.019-.485.485-.7-.679c-.117.117-.233.233-.446.427a1.493,1.493,0,0,1-.893.427,1.337,1.337,0,0,1-1.086-.427,1.355,1.355,0,0,1-.428-.97,1.489,1.489,0,0,1,.428-1.009l.426-.426a1.345,1.345,0,0,1-.5-1.029M11,0A11,11,0,1,0,22,11,11,11,0,0,0,11,0"/>
  </g>
</svg>
