<svg xmlns="http://www.w3.org/2000/svg" viewBox="0 0 39 22">
  <defs>
    <style>
      .a {
        fill: #ef4923;
      }
    </style>
  </defs>
  <title>jbl</title>
  <g>
    <path class="a" d="M5.065,18.549l0-3.773H1.509V17.9c0,1.563,1.4,4.1,5.386,4.1s5.387-1.938,5.387-4.1V0H8.727V18.524A1.855,1.855,0,0,1,6.9,20.385a1.836,1.836,0,0,1-1.833-1.836"/>
    <path class="a" d="M3.287,12.413A2.06,2.06,0,1,0,1.23,10.354a2.059,2.059,0,0,0,2.057,2.059"/>
    <path class="a" d="M20.47,9.334h-.162l-1.777,0V2.049H20.47c1.293,0,1.616.271,1.616,3.668s-.323,3.617-1.616,3.617M20.685,19.9h-.377l-1.777,0V11.164h2.154c1.4,0,1.4.994,1.4,4.393s0,4.346-1.4,4.346M25.64,7.226V3.532A3.609,3.609,0,0,0,22.086,0h-7.11V21.677h7.11c2.666,0,3.554-1.726,3.554-2.831v-6.5A2.35,2.35,0,0,0,23.3,10.218c1.4,0,2.342-1.914,2.342-2.992"/>
    <polygon class="a" points="6.573 0 0 0 3.286 7.495 6.573 0"/>
    <path class="a" d="M39,14.775H35.444l0,3.774a1.832,1.832,0,1,1-3.664,0V0H28.227V21.677H39Z"/>
  </g>
</svg>
