<svg xmlns="http://www.w3.org/2000/svg" viewBox="0 0 86 22">
  <defs>
    <style>
      .a {
        fill-rule: evenodd;
      }
    </style>
  </defs>
  <title>marshall</title>
  <path class="a" d="M26,19.95c2.523-.5,4.059-3.031,4.442-5.511.11-.606-.712-.937-1.261-.661a6.1,6.1,0,0,0-1.426.992,6.943,6.943,0,0,0-2.413,4.078c-.109.551.329,1.157.658,1.1Zm17.713.441a1.139,1.139,0,0,0,1.317-.882,4.725,4.725,0,0,0-.275-3.251c-.164.165-1.59,1.818-2.029,2.479-.274.331.22,1.433.987,1.654Zm16.123-.882c.165.551.932.5,1.316.275a6.628,6.628,0,0,0,3.62-5.565c0-.441-.6-.717-1.1-.5a5.942,5.942,0,0,0-2.8,2.424,4.411,4.411,0,0,0-1.042,3.362Zm18.865-5.4a18.34,18.34,0,0,0,3.345-3.141,11.819,11.819,0,0,0,1.809-3.306,15.739,15.739,0,0,0-2.687,2.645,24.12,24.12,0,0,0-2.467,3.8ZM37.625,11.3l.055-.055c.549-.772.768-1.819,0-2.2-.11-.056-.274.275-.274.44a2.108,2.108,0,0,0,.219,1.819Zm-1.1,1.763a4.742,4.742,0,0,1-.439-4.188c.548-1.377,2.632-1.873,3.4-.33.822,1.708-.384,3.2-.713,3.857-.11.22.987-.11,1.371-.11a.957.957,0,0,1,.932,1.433c-1.261,2.094-3.4,3.526-3.674,6.061-.055.607,1.481.276,3.345-1.267.055-.055,3.345-4.078,5.868-7.219.548-.716,2.522,0,1.864.937-.548.826-1.1,1.433-1.425,1.928-.494.717.767,1.213.658,3.913.932-.716,2.467-1.708,2.522-1.818,1.591-3.307,3.236-7.164,4.826-10.581.384-.827,2.523-.441,2.029.661-.987,2.26-2.029,4.684-2.961,6.889a14.484,14.484,0,0,0,1.809-1.1c1.207-.386,1.7.661,1.865,1.432.439,1.764-1.481,4.188-2.358,5.9-.219.441.274.22.493.055a7.183,7.183,0,0,0,1.7-1.488c1.536-4.188,6.581-7.439,8.555-5.015.165-.22.329-.551.384-.551.439-.441,2.194-.275,1.92.551,0,.055-1.81,3.637-2.8,5.511-.22.441,0,1.543.6,1.1a13.634,13.634,0,0,0,2.358-2.259c1.1-3.086,4.661-9.313,9.432-11.848.823-.441,2.3.11,1.81,1.377a16.606,16.606,0,0,1-6.581,8.542c-.054.055-.109.055-.109.11-.6.441-2.413,1.488-2.523,1.874a4.267,4.267,0,0,0-.164,1.873c.274.937,1.206.827,1.864.331,2.468-1.818,3.4-4.574,4.99-7.109A20.966,20.966,0,0,1,82.1,7.055c.932-.772,1.864-1.764,3.125-1.6a.927.927,0,0,1,.768.991,15.139,15.139,0,0,1-5.648,8.377c-1.1.881-2.194,1.708-3.181,2.369-.274.166-.877,3.637,1.645,2.425,1.207-.551,2.468-2.37,3.181-3.251.384-.441.987.165.713.771A10.673,10.673,0,0,1,79.577,21a3.35,3.35,0,0,1-3.455.716,2.875,2.875,0,0,1-1.481-2.094,6.914,6.914,0,0,1-3.454,2.259,2.127,2.127,0,0,1-2.907-2.094c-1.261,1.047-3.729,3.637-4.99.882-1.426.772-3.894,2.48-5.594-.331-1.151.772-2.522,2.15-3.838,1.323a1.868,1.868,0,0,1-.823-2.425c.713-1.6,2.139-4.188,2.248-4.353.165-.331-.274-.5-.548-.276-1.152.937-2.084,1.709-2.139,1.819-.6,1.322-1.7,3.692-2.248,4.9-.329.772-1.755.717-2.139.166-.548-.772.22-1.543.549-2.26-1.591,1.1-2.742,2.26-4.442,2.59a2.95,2.95,0,0,1-3.346-1.6c-1.59.827-3.4,2.425-5.1,1.158-1.48-1.1-.712-3.858,2.688-7.164a.105.105,0,0,0,0-.166l-.549-.22c-1.261,1.708-3.948,5.841-5.593,7-1.81,1.213-3.017,1.543-3.839,0-1.81,1.323-4.278,1.543-5.265-.551h0c-1.48,1.213-2.467,2.039-4.661,1.6a2.362,2.362,0,0,1-1.7-2.2,20.215,20.215,0,0,1,.329-4.794c-1.371,2.314-2.632,4.9-4.552,6.888-.329.331-1.48.11-1.37-.551.438-2.59,1.864-6.227,1.7-8.652-1.92,4.3-4.826,10.967-10.584,9.038C-1.584,20.225-.6,12.9,5.051,15.155c.658.276.274,1.488-.329,1.268-2.742-1.1-3.345,3.472-.548,3.637a3.974,3.974,0,0,0,3.564-1.929C11.467,12.455,12.564,6.944,16.951.387c.6-.937,2.139,0,1.645.992a29.6,29.6,0,0,0-1.919,4.849,20.249,20.249,0,0,0-.987,6.448C18.6,8.212,21.5,3.858,25.67.221c.165-.165.549-.11.823,0a.647.647,0,0,1,.274.992C22.38,8.1,18.212,15.155,19.2,19.344c.22.881.823.716,1.536.606A6.371,6.371,0,0,0,23.2,18.076,8.823,8.823,0,0,1,29.18,12.4a2.734,2.734,0,0,1,2.632.661,1.3,1.3,0,0,1,2.084-.33.7.7,0,0,1,0,.661c-1.042,1.984-1.919,3.692-2.961,5.511-.055.165.11.441.329.385,1.481-.5,3.51-3.692,5.265-6.227Zm35.754,1.158a13.934,13.934,0,0,0,3.181-2.756,16.883,16.883,0,0,0,2.248-3.8,17.612,17.612,0,0,0-2.906,2.81,44.934,44.934,0,0,0-2.523,3.748Z"/>
</svg>
