<svg xmlns="http://www.w3.org/2000/svg" viewBox="0 0 18 22">
  <title>apple</title>
  <path d="M15.032,11.688A4.874,4.874,0,0,0,18,16.139a11.876,11.876,0,0,1-1.525,3.126c-.924,1.341-1.88,2.674-3.388,2.706-1.477.026-1.955-.877-3.646-.875s-2.219.849-3.621.9c-1.457.055-2.563-1.446-3.493-2.782-1.9-2.729-3.35-7.712-1.4-11.087A5.417,5.417,0,0,1,5.5,5.375c1.431-.03,2.775.952,3.649.952s2.513-1.179,4.234-1.009A5.186,5.186,0,0,1,17.424,7.5a4.989,4.989,0,0,0-2.392,4.193M12.248,3.512A4.836,4.836,0,0,0,13.4,0a4.965,4.965,0,0,0-3.256,1.667,4.567,4.567,0,0,0-1.169,3.4,4.1,4.1,0,0,0,3.274-1.559"/>
</svg>
