<svg class="logo" xmlns="http://www.w3.org/2000/svg" width="250" height="25.35" viewBox="0 0 250 25.35" aria-labelledby="logoTitleID logoDescID"><title id="logoTitleID">Devialet</title><desc id="logoDescID">Devialet logo</desc><polygon points="228.304 0.001 228.304 4.259 236.934 4.259 236.934 22.383 241.379 22.383 241.379 4.259 250 4.259 250 0.001 228.304 0.001"></polygon><path d="M12.206,17.581H7.338V4.8h4.868c4.2,0,6.615,2.662,6.615,6.409,0,3.779-2.237,6.371-6.615,6.371M12.132,0H0V2.4H2.4V19.983H0v2.4H12.132c7.334,0,11.706-4.71,11.706-11.135C23.838,4.791,19.275,0,12.132,0"></path><polygon points="81.258 15.16 73.962 0.001 69.062 0.001 81.269 25.35 93.49 0.001 88.548 0.001 81.258 15.16"></polygon><rect x="106.892" y="0.001" width="4.448" height="22.382"></rect><path d="M133.49,12.667l3-6.09,3.051,6.09ZM138.157,0H134.82L123.877,22.383h4.862l2.7-5.512h10.136l2.785,5.512h4.861Z"></path><polygon points="165.878 0.001 161.431 0.001 161.431 22.383 179.249 22.383 179.249 18.127 165.878 18.127 165.878 0.001"></polygon><polygon points="37.644 22.383 55.646 22.383 55.646 18.128 42.088 18.128 42.088 13.322 54.248 13.322 54.248 9.068 42.088 9.068 42.088 4.259 55.163 4.259 55.163 0 37.644 0 37.644 22.383"></polygon><polygon points="194.868 22.384 212.87 22.384 212.87 18.128 199.312 18.128 199.312 13.322 211.472 13.322 211.472 9.068 199.312 9.068 199.312 4.26 212.387 4.26 212.387 0 194.868 0 194.868 22.384"></polygon></svg>