<svg xmlns="http://www.w3.org/2000/svg" width="93" height="22" viewBox="0 0 93 22">
  <title>jabra_1</title>
  <path d="M51.869,5.70471a.37239.37239,0,0,0,.38059-.38213V4.47643a.3724.3724,0,0,0-.38059-.38214c-6.19819,0-6.19819,1.39206-6.19819,2.10174v7.15136a.3724.3724,0,0,0,.38059.38214h2.47384a.3724.3724,0,0,0,.38059-.38214V6.71464C48.87869,6.41439,48.87869,5.70471,51.869,5.70471ZM27.59281,11.84615V6.196c0-.70968,0-2.10174-6.19819-2.10174-5.98071,0-5.98071,1.39206-5.98071,2.10174v.51861a.3724.3724,0,0,0,.3806.38213h2.47383a.37239.37239,0,0,0,.38059-.38213c0-.30025,0-1.00993,2.77287-1.00993,2.99036,0,2.99036.70968,2.99036,1.00993V8.24317A29.06929,29.06929,0,0,0,21.4218,8.1067c-6.19818,0-6.19818,1.39206-6.19818,2.10173v1.63772c0,.70968,0,2.10174,6.19818,2.10174C27.59281,13.94789,27.59281,12.55583,27.59281,11.84615Zm-3.235-.5459c0,.30025,0,1.00992-2.99035,1.00992s-2.99036-.70967-2.99036-1.00992v-.5732c0-.30025,0-1.03722,2.99036-1.03722s2.99035.70967,2.99035,1.03722Zm18.45864.51861V6.196c0-.70968,0-2.10174-6.19819-2.10174a29.06567,29.06567,0,0,0-2.99035.13648V.43673A.3724.3724,0,0,0,33.2473.05459H30.77346a.3724.3724,0,0,0-.38059.38214V11.81886c0,.70968,0,2.10173,6.19819,2.10173C42.81643,13.94789,42.81643,12.52854,42.81643,11.81886Zm-9.16136-.51861V6.71464c0-.30025,0-1.00993,2.99035-1.00993s2.99036.70968,2.99036,1.00993v4.58561c0,.30025,0,1.00992-2.99036,1.00992S33.65507,11.6005,33.65507,11.30025Zm25.82578,2.64764c6.19818,0,6.19818-1.39206,6.19818-2.10174V6.196c0-.70968,0-2.10174-6.19818-2.10174-5.98071,0-5.98071,1.39206-5.98071,2.10174v.51861a.37239.37239,0,0,0,.38059.38213h2.47384a.37239.37239,0,0,0,.38059-.38213c0-.30025,0-1.00993,2.74569-1.00993,2.99035,0,2.99035.70968,2.99035,1.00993V8.24317a29.06893,29.06893,0,0,0-2.99035-.13647c-6.19818,0-6.19818,1.39206-6.19818,2.10173v1.63772C53.25548,12.55583,53.25548,13.94789,59.48085,13.94789ZM56.4905,10.72705c0-.30025,0-1.03722,2.99035-1.03722s2.99035.70967,2.99035,1.03722v.5732c0,.30025,0,1.00992-2.99035,1.00992s-2.99035-.70967-2.99035-1.00992ZM12.07015.08189H9.59632A.37239.37239,0,0,0,9.21573.464V11.32754c0,.30025,0,1.00993-2.99036,1.00993-2.85443,0-2.96317-.65509-2.99035-.98263v-.49132a.37239.37239,0,0,0-.38059-.38213H.38059A.37239.37239,0,0,0,0,10.86352v.95534c0,.70968,0,2.10173,6.19819,2.10173s6.19818-1.39205,6.19818-2.10173V.43673C12.47793.24566,12.28764.08189,12.07015.08189ZM1.19614,19.24317H.27185a.21489.21489,0,0,0-.21748.21837v2.2928a.21484.21484,0,0,0,.21748.21837h.92429a.21488.21488,0,0,0,.21748-.21837v-2.2928C1.44081,19.35236,1.33207,19.24317,1.19614,19.24317Zm4.62146,0H4.75738a.24416.24416,0,0,0-.24467.24566v2.26551A.24415.24415,0,0,0,4.75738,22H5.8176a.24414.24414,0,0,0,.24466-.24566V19.48883A.28744.28744,0,0,0,5.8176,19.24317Zm4.59427,0H9.18854a.24415.24415,0,0,0-.24466.24566V21.727a.24414.24414,0,0,0,.24466.24565h1.22333a.24414.24414,0,0,0,.24466-.24565V19.48883A.24415.24415,0,0,0,10.41187,19.24317Zm4.59427,0H13.64689a.24415.24415,0,0,0-.24467.24566V21.727a.24414.24414,0,0,0,.24467.24565h1.35925a.24414.24414,0,0,0,.24466-.24565V19.48883C15.278,19.35236,15.14206,19.24317,15.00614,19.24317Zm4.62145,0H18.10523a.273.273,0,0,0-.27185.273V21.727a.273.273,0,0,0,.27185.273h1.52236a.273.273,0,0,0,.27186-.273V19.51613A.31754.31754,0,0,0,19.62759,19.24317Zm4.59427,0H22.56357a.273.273,0,0,0-.27185.273v2.18362a.273.273,0,0,0,.27185.27295h1.65829a.273.273,0,0,0,.27185-.27295V19.51613A.29294.29294,0,0,0,24.22186,19.24317Zm4.59428,0h-1.8214a.30231.30231,0,0,0-.299.30025v2.15633a.30231.30231,0,0,0,.299.30025h1.8214a.3023.3023,0,0,0,.299-.30025V19.54342A.30231.30231,0,0,0,28.81614,19.24317Zm4.59427,0H31.45308a.3023.3023,0,0,0-.299.30025v2.15633a.3023.3023,0,0,0,.299.30025h1.95733a.3023.3023,0,0,0,.299-.30025V19.54342A.28583.28583,0,0,0,33.41041,19.24317Zm4.62145,0H35.91143a.30231.30231,0,0,0-.299.30025v2.129a.3023.3023,0,0,0,.299.30024h2.12043a.3023.3023,0,0,0,.299-.30024v-2.129A.30231.30231,0,0,0,38.03186,19.24317Zm4.59427,0H40.36977a.31473.31473,0,0,0-.32622.32755v2.10173A.31473.31473,0,0,0,40.36977,22h2.25636a.31473.31473,0,0,0,.32622-.32755V19.57072A.33126.33126,0,0,0,42.62613,19.24317Zm4.59427,0H44.82812a.31472.31472,0,0,0-.32622.32755v2.07444a.31472.31472,0,0,0,.32622.32754H47.2204a.31472.31472,0,0,0,.32622-.32754V19.57072A.31406.31406,0,0,0,47.2204,19.24317Zm34.09,0H49.53113a.60461.60461,0,0,0-.59807.6005v1.52854a.6046.6046,0,0,0,.59807.60049H81.31044a.6046.6046,0,0,0,.59807-.60049V19.84367A.60463.60463,0,0,0,81.31044,19.24317ZM92.18445,0a.79182.79182,0,0,0-.76118.81886V6.44169a.1464.1464,0,0,1-.24466.10918L84.84449.24566a.81223.81223,0,0,0-.97866-.10918.77889.77889,0,0,0-.38059.68238V8.73449a.79673.79673,0,0,0,.81555.79156.81439.81439,0,0,0,.78836-.81885V3.08437a.1464.1464,0,0,1,.24467-.10918l6.30693,6.3325a.7809.7809,0,0,0,.57089.24566.7648.7648,0,0,0,.40777-.10918A.79222.79222,0,0,0,93,8.73449V.79156A.83273.83273,0,0,0,92.18445,0ZM81.12014,3.98511H78.78222A.80533.80533,0,0,0,78.755,5.59553h1.38643a.1862.1862,0,0,1,.1903.19107V7.77916h0a.18619.18619,0,0,1-.1903.19106h-2.9088a3.18,3.18,0,1,1-.05436-6.3598H81.093A.81415.81415,0,0,0,81.9085.81886.8144.8144,0,0,0,81.12014,0H77.23268a4.82851,4.82851,0,0,0-4.81175,4.531,4.75111,4.75111,0,0,0,4.73019,4.995H81.093a.79054.79054,0,0,0,.78837-.79156V4.77667A.72175.72175,0,0,0,81.12014,3.98511Z"/>
</svg>
